<svg width="44" height="44" viewBox="0 0 44 44" fill="none" xmlns="http://www.w3.org/2000/svg">
<path d="M1 22C1 24.7578 1.54318 27.4885 2.59853 30.0364C3.65388 32.5842 5.20073 34.8992 7.15076 36.8492C9.10079 38.7993 11.4158 40.3461 13.9636 41.4015C16.5115 42.4568 19.2422 43 22 43C24.7578 43 27.4885 42.4568 30.0364 41.4015C32.5842 40.3461 34.8992 38.7993 36.8492 36.8492C38.7993 34.8992 40.3461 32.5842 41.4015 30.0364C42.4568 27.4885 43 24.7578 43 22C43 19.2422 42.4568 16.5115 41.4015 13.9636C40.3461 11.4158 38.7993 9.10079 36.8492 7.15076C34.8992 5.20073 32.5842 3.65388 30.0364 2.59853C27.4885 1.54318 24.7578 1 22 1C19.2422 1 16.5115 1.54318 13.9636 2.59853C11.4158 3.65388 9.10079 5.20073 7.15076 7.15076C5.20073 9.10079 3.65388 11.4158 2.59853 13.9636C1.54318 16.5115 1 19.2422 1 22Z" stroke="black" stroke-width="2" stroke-linecap="round" stroke-linejoin="round"/>
<path d="M8.39209 37.981C8.96961 36.0589 10.1513 34.3741 11.762 33.1766C13.3726 31.9791 15.3264 31.3328 17.3334 31.3333H26.6668C28.6764 31.3326 30.6325 31.9806 32.2443 33.1808C33.8561 34.3811 35.0375 36.0695 35.6128 37.995M15.0001 17.3333C15.0001 19.1899 15.7376 20.9703 17.0503 22.2831C18.3631 23.5958 20.1436 24.3333 22.0001 24.3333C23.8566 24.3333 25.6371 23.5958 26.9498 22.2831C28.2626 20.9703 29.0001 19.1899 29.0001 17.3333C29.0001 15.4768 28.2626 13.6964 26.9498 12.3836C25.6371 11.0708 23.8566 10.3333 22.0001 10.3333C20.1436 10.3333 18.3631 11.0708 17.0503 12.3836C15.7376 13.6964 15.0001 15.4768 15.0001 17.3333Z" stroke="black" stroke-width="2" stroke-linecap="round" stroke-linejoin="round"/>
</svg>
